<?xml version="1.0" encoding="UTF-8" standalone="no"?>
<!-- Created with Inkscape (http://www.inkscape.org/) -->

<svg
   xmlns:dc="http://purl.org/dc/elements/1.1/"
   xmlns:cc="http://creativecommons.org/ns#"
   xmlns:rdf="http://www.w3.org/1999/02/22-rdf-syntax-ns#"
   xmlns:svg="http://www.w3.org/2000/svg"
   xmlns="http://www.w3.org/2000/svg"
   xmlns:sodipodi="http://sodipodi.sourceforge.net/DTD/sodipodi-0.dtd"
   xmlns:inkscape="http://www.inkscape.org/namespaces/inkscape"
   width="536.03876"
   height="500"
   id="svg5581"
   version="1.1"
   inkscape:version="0.48.1 "
   sodipodi:docname="Neues Dokument 3">
  <defs
     id="defs5583" />
  <sodipodi:namedview
     id="base"
     pagecolor="#ffffff"
     bordercolor="#666666"
     borderopacity="1.0"
     inkscape:pageopacity="0.0"
     inkscape:pageshadow="2"
     inkscape:zoom="1.546"
     inkscape:cx="268.01938"
     inkscape:cy="250"
     inkscape:document-units="px"
     inkscape:current-layer="layer1"
     showgrid="false"
     fit-margin-top="0"
     fit-margin-left="0"
     fit-margin-right="0"
     fit-margin-bottom="0"
     inkscape:window-width="1680"
     inkscape:window-height="990"
     inkscape:window-x="-4"
     inkscape:window-y="-4"
     inkscape:window-maximized="1" />
  <metadata
     id="metadata5586">
    <rdf:RDF>
      <cc:Work
         rdf:about="">
        <dc:format>image/svg+xml</dc:format>
        <dc:type
           rdf:resource="http://purl.org/dc/dcmitype/StillImage" />
        <dc:title></dc:title>
      </cc:Work>
    </rdf:RDF>
  </metadata>
  <g
     inkscape:label="Ebene 1"
     inkscape:groupmode="layer"
     id="layer1"
     transform="translate(-130.54399,29.01059)">
    <g
       id="g1390"
       transform="matrix(13.723822,0,0,-13.723822,130.54399,17.293585)">
      <path
         inkscape:connector-curvature="0"
         d="m 0,0 c 0,2.167 1.294,3.374 3.617,3.374 l 31.825,0 c 2.324,0 3.617,-1.207 3.617,-3.374 l 0,-29.685 c 0,-2.167 -1.294,-3.374 -3.617,-3.374 l -31.825,0 C 1.294,-33.059 0,-31.852 0,-29.685"
         style="fill:#fdb714;fill-opacity:1;fill-rule:nonzero;stroke:none"
         id="path1392" />
    </g>
    <g
       id="g1394"
       transform="matrix(13.723822,0,0,-13.723822,151.9806,426.37327)">
      <path
         inkscape:connector-curvature="0"
         d="m 0,0 c 0,-1.11 0.732,-1.794 1.923,-1.794 l 32.088,0 c 1.19,0 1.923,0.684 1.923,1.794 l 0,29.929 c 0,1.111 -0.733,1.795 -1.923,1.795 l -32.088,0 C 0.732,31.724 0,31.04 0,29.929"
         style="fill:#cd153e;fill-opacity:1;fill-rule:nonzero;stroke:none"
         id="path1396" />
    </g>
    <g
       id="g1398"
       transform="matrix(13.723822,0,0,-13.723822,548.70884,171.05528)">
      <path
         inkscape:connector-curvature="0"
         d="m 0,0 -0.099,0.227 -0.235,0.091 -8.264,0 C -8.78,0.313 -8.922,0.176 -8.922,0.005 l 0.102,-0.223 0.055,-0.052 8.179,-7.628 0.034,-0.029 0.218,-0.068 C -0.173,-7.995 0,-7.887 0,-7.727 L 0,-7.701 0,0 z m -1.53,-1.034 0,-3.993 -4.281,3.992"
         style="fill:#fdb714;fill-opacity:1;fill-rule:nonzero;stroke:none"
         id="path1400" />
    </g>
    <g
       id="g1402"
       transform="matrix(13.723822,0,0,-13.723822,498.2738,275.46612)">
      <path
         inkscape:connector-curvature="0"
         d="m 0,0 -0.097,0.22 0.001,0 -0.026,0.024 -4.744,4.425 -0.237,0.094 -0.171,-0.045 C -5.797,4.433 -6.455,4.315 -7.103,4.315 c -1.949,0 -3.536,1.478 -3.536,3.296 0,1.818 1.587,3.298 3.536,3.298 0.749,0 1.488,-0.186 2.073,-0.533 l 0.001,0 0.169,-0.044 c 0.103,0 0.195,0.043 0.256,0.111 l 0.702,0.837 -10e-4,0.001 2.665,3.184 0.003,-10e-4 0.73,0.871 0.078,0.201 c 0,0.1 -0.05,0.189 -0.128,0.246 l 0,10e-4 c -1.804,1.275 -4.15,2.03 -6.607,2.03 -3.679,0 -6.309,-1.146 -8.309,-3.053 -1.893,-1.808 -2.985,-4.122 -2.985,-6.972 0,-3.269 1.14,-5.439 3.009,-7.286 1.924,-1.902 4.832,-3.093 8.344,-3.093 2.648,0 5.075,0.879 6.967,2.339 C -0.053,-0.195 0,-0.103 0,0 m -3.897,-0.655 c -1.009,-0.337 -2.105,-0.503 -3.206,-0.503 -2.512,0 -5.272,0.936 -7.048,2.592 -1.777,1.656 -2.728,3.738 -2.728,6.354 0,2.343 0.939,4.453 2.715,6.109 1.775,1.656 4.408,2.483 6.92,2.483 1.656,0 3.387,-0.397 4.787,-1.142 l -2.722,-3.249 c -0.593,0.227 -1.243,0.353 -1.924,0.353 -2.801,0 -5.072,-2.118 -5.072,-4.731 0,-2.613 2.271,-4.73 5.072,-4.73 0.864,0 1.282,0.095 1.731,0.282 l 3.226,-3.01 c -0.432,-0.321 -1.13,-0.601 -1.751,-0.808 m -16.009,-8.55 c -0.951,0 -1.432,0.454 -1.432,1.117 l 0,1.522 c 0,0.673 0.481,1.117 1.432,1.117 0.452,0 0.916,-0.055 1.25,-0.115 l -0.105,-0.717 c -0.341,0.049 -0.864,0.087 -1.145,0.087 -0.44,0 -0.552,-0.213 -0.552,-0.498 l 0,-1.254 c 0,-0.284 0.112,-0.52 0.552,-0.52 0.176,0 0.294,0.006 0.522,0.033 l 0,1.117 0.828,0 0,-1.714 c -0.428,-0.115 -0.898,-0.175 -1.35,-0.175"
         style="fill:#fdb714;fill-opacity:1;fill-rule:nonzero;stroke:none"
         id="path1404" />
    </g>
    <g
       id="g1406"
       transform="matrix(13.723822,0,0,-13.723822,264.9551,384.66602)">
      <path
         inkscape:connector-curvature="0"
         d="m 0,0 c 0,-0.318 0.111,-0.504 0.546,-0.504 0.282,0 0.669,0.033 1.009,0.088 L 1.678,-1.133 C 1.293,-1.21 0.939,-1.248 0.546,-1.248 c -0.987,0 -1.426,0.454 -1.426,1.117 l 0,1.522 c 0,0.662 0.439,1.117 1.426,1.117 0.393,0 0.747,-0.039 1.132,-0.115 L 1.555,1.675 C 1.215,1.73 0.828,1.763 0.546,1.763 0.111,1.763 0,1.577 0,1.259 L 0,0 z m 4.93,-1.248 c -0.951,0 -1.432,0.454 -1.432,1.117 l 0,1.522 c 0,0.673 0.481,1.117 1.432,1.117 0.452,0 0.916,-0.055 1.25,-0.115 L 6.075,1.676 C 5.735,1.725 5.212,1.763 4.93,1.763 4.49,1.763 4.378,1.55 4.378,1.265 l 0,-1.254 c 0,-0.284 0.112,-0.52 0.552,-0.52 0.176,0 0.294,0.006 0.522,0.033 l 0,1.117 0.828,0 0,-1.714 C 5.852,-1.188 5.382,-1.248 4.93,-1.248 m 3.51,1.188 -0.517,0 0,-1.133 -0.88,0 0,3.646 1.626,0 c 0.95,0 1.303,-0.35 1.303,-1.035 l 0,-0.449 c 0,-0.454 -0.177,-0.761 -0.57,-0.914 l 0.945,-1.248 -1.045,0 -0.862,1.133 z m 0.651,1.402 c 0,0.273 -0.112,0.383 -0.469,0.383 l -0.699,0 0,-1.073 0.699,0 c 0.375,0 0.469,0.126 0.469,0.399 l 0,0.291 z m 4.584,1.111 0,-2.584 c 0,-0.553 -0.369,-1.117 -1.473,-1.117 -1.103,0 -1.473,0.564 -1.473,1.117 l 0,2.584 0.881,0 0,-2.508 c 0,-0.295 0.152,-0.465 0.592,-0.465 0.44,0 0.593,0.17 0.593,0.465 l 0,2.508 0.88,0 z m 2.341,-2.541 -0.669,0 0,-1.105 -0.88,0 0,3.645 1.596,0 c 0.951,0 1.303,-0.35 1.303,-1.034 l 0,-0.477 c 0,-0.684 -0.399,-1.029 -1.35,-1.029 m 0.47,1.429 c 0,0.263 -0.1,0.383 -0.47,0.383 l -0.669,0 0,-1.1 0.669,0 c 0.388,0 0.47,0.137 0.47,0.399 l 0,0.318 z m 3.017,-1.429 -0.669,0 0,-1.105 -0.88,0 0,3.645 1.596,0 c 0.951,0 1.303,-0.35 1.303,-1.034 l 0,-0.477 c 0,-0.684 -0.399,-1.029 -1.35,-1.029 m 0.47,1.429 c 0,0.263 -0.1,0.383 -0.47,0.383 l -0.669,0 0,-1.1 0.669,0 c 0.387,0 0.47,0.137 0.47,0.399 l 0,0.318 z m 1.495,-2.534 0,3.645 2.46,0 0,-0.728 -1.579,0 0,-0.668 1.455,0 0,-0.728 -1.455,0 0,-0.794 1.579,0 0,-0.727"
         style="fill:#fdb714;fill-opacity:1;fill-rule:nonzero;stroke:none"
         id="path1408" />
    </g>
  </g>
</svg>
